<?xml version="1.0" standalone="no"?><!DOCTYPE svg PUBLIC "-//W3C//DTD SVG 1.1//EN" "http://www.w3.org/Graphics/SVG/1.1/DTD/svg11.dtd"><svg t="1751878251485" class="icon" viewBox="0 0 1024 1024" version="1.1" xmlns="http://www.w3.org/2000/svg" p-id="11469" width="32" height="32" xmlns:xlink="http://www.w3.org/1999/xlink"><path d="M299.072 532.992c0-56.864 22.112-110.304 62.336-150.496a211.424 211.424 0 0 1 150.464-62.336c56.864 0 110.304 22.144 150.496 62.336a211.424 211.424 0 0 1 62.336 150.496v299.52H299.072v-299.52z m596.832 299.52h-107.2v-299.52a276.8 276.8 0 1 0-553.632 0v299.52h-107.2v64h768.032v-64z" p-id="11470"></path><path d="M636.192 544.608h-95.936l21.024-125.024-174.656 224.992h95.936l-21.024 125.024zM479.84 192.32h64v-96h-64zM193.408 402.624l32-55.424-83.136-48-32 55.424zM830.24 402.624l-32-55.424 83.136-48 32 55.424zM364.736 224.288l-55.424 32-48-83.136 55.424-32zM658.816 224.288l55.424 32 48-83.136-55.424-32z" p-id="11471"></path></svg>
