<svg width="32" height="32" viewBox="0 0 32 32" fill="none" xmlns="http://www.w3.org/2000/svg">
  <g clip-path="url(#clip0_51_71)">
    <path fill-rule="evenodd" clip-rule="evenodd"
      d="M16 32C24.8366 32 32 24.8366 32 16C32 7.16344 24.8366 0 16 0C7.16344 0 0 7.16344 0 16C0 24.8366 7.16344 32 16 32ZM16 31C24.2843 31 31 24.2843 31 16C31 7.71573 24.2843 1 16 1C7.71573 1 1 7.71573 1 16C1 24.2843 7.71573 31 16 31Z"
      fill="#13c2c2" />
    <path
      d="M13.269 21.2867C13.7902 21.3077 14.3019 21.158 14.7264 20.8614C15.1414 20.5293 15.4302 20.0725 15.5498 19.5606L14.4725 19.2377C14.4134 19.5619 14.2522 19.8599 14.0105 20.0909C13.8018 20.2712 13.5313 20.3682 13.2529 20.3626C13.0679 20.3681 12.8841 20.3321 12.7155 20.2575C12.547 20.1829 12.3981 20.0716 12.2804 19.9321C12.0319 19.6459 11.9056 19.1642 11.9056 18.4869C11.9056 17.8503 12.0359 17.3883 12.2952 17.1021C12.418 16.964 12.5713 16.8549 12.7434 16.7829C12.9155 16.7108 13.1021 16.6777 13.2891 16.686C13.5587 16.6754 13.8232 16.7592 14.035 16.9224C14.2468 17.0856 14.392 17.3174 14.4443 17.576L15.5364 17.3187C15.445 16.9472 15.2502 16.6073 14.9749 16.3342C14.5289 15.9352 13.9406 15.7278 13.3362 15.7541C12.9907 15.7404 12.6462 15.7992 12.3259 15.9267C12.0057 16.0542 11.7172 16.2473 11.4798 16.4931C11.0097 16.9866 10.7733 17.677 10.7733 18.567C10.7719 19.4083 11.007 20.0725 11.4744 20.5595C11.7035 20.7983 11.9821 20.9867 12.2915 21.1121C12.6009 21.2375 12.9342 21.297 13.269 21.2867Z"
      fill="#13c2c2" />
    <path fill-rule="evenodd" clip-rule="evenodd"
      d="M18.5505 21.2867C19.3498 21.2867 19.9918 21.0425 20.4781 20.5555C20.9563 20.0725 21.1954 19.3965 21.1954 18.5263C21.1954 17.656 20.9522 16.9774 20.4673 16.4865C20.2142 16.2397 19.9113 16.0471 19.5778 15.921C19.2443 15.7949 18.8876 15.738 18.5304 15.7541C18.1274 15.7462 17.7258 15.8184 17.351 15.9654C17.0837 16.077 16.842 16.241 16.6418 16.4471C16.4283 16.6598 16.2536 16.9092 16.1287 17.1809C15.9493 17.6163 15.8642 18.0833 15.8789 18.5525C15.8856 19.4044 16.1274 20.0725 16.6069 20.5595C17.1039 21.0438 17.7513 21.2867 18.5505 21.2867ZM17.4545 17.1362C17.7312 16.833 18.1315 16.6637 18.5479 16.6768C18.7534 16.6691 18.9581 16.7056 19.1475 16.7839C19.337 16.8621 19.5064 16.9802 19.6439 17.1297C19.9193 17.4355 20.055 17.8844 20.055 18.504C20.055 19.1222 19.9193 19.5934 19.6506 19.8953C19.5121 20.0438 19.3433 20.1624 19.1552 20.2436C18.967 20.3247 18.7636 20.3667 18.5579 20.3667C18.3523 20.3667 18.1489 20.3247 17.9607 20.2436C17.7726 20.1624 17.6038 20.0438 17.4652 19.8953C17.1778 19.5934 17.0354 19.134 17.0354 18.5171C17.0367 17.9015 17.1764 17.4408 17.4545 17.1362Z"
      fill="#13c2c2" />
    <path fill-rule="evenodd" clip-rule="evenodd"
      d="M16 30C23.732 30 30 23.732 30 16C30 8.26801 23.732 2 16 2C8.26801 2 2 8.26801 2 16C2 23.732 8.26801 30 16 30ZM6.76314 13.2512C6.71054 13.1172 6.68608 12.9743 6.69123 12.8309C6.68608 12.6876 6.71054 12.5446 6.76314 12.4107C6.81573 12.2768 6.8954 12.1545 6.99737 12.0513C7.09935 11.9481 7.22155 11.866 7.35668 11.81C7.49182 11.7539 7.63713 11.725 7.78394 11.725C7.93075 11.725 8.07606 11.7539 8.2112 11.81C8.34633 11.866 8.46853 11.9481 8.57051 12.0513C8.67249 12.1545 8.75215 12.2768 8.80474 12.4107C8.85734 12.5446 8.8818 12.6876 8.87665 12.8309C8.8818 12.9743 8.85734 13.1172 8.80474 13.2512C8.75215 13.3851 8.67249 13.5073 8.57051 13.6105C8.46853 13.7137 8.34633 13.7958 8.2112 13.8519C8.07606 13.9079 7.93075 13.9368 7.78394 13.9368C7.63713 13.9368 7.49182 13.9079 7.35668 13.8519C7.22155 13.7958 7.09935 13.7137 6.99737 13.6105C6.8954 13.5073 6.81573 13.3851 6.76314 13.2512ZM15.2065 10.0267C15.0014 9.82631 14.8862 9.55455 14.8862 9.27118C14.8862 8.98781 15.0014 8.71604 15.2065 8.51567C15.4115 8.3153 15.6896 8.20273 15.9796 8.20273C16.2696 8.20273 16.5477 8.3153 16.7528 8.51567C16.9578 8.71604 17.073 8.98781 17.073 9.27118C17.073 9.55455 16.9578 9.82631 16.7528 10.0267C16.5477 10.2271 16.2696 10.3396 15.9796 10.3396C15.6896 10.3396 15.4115 10.2271 15.2065 10.0267ZM10.4181 9.90046C10.2473 9.73356 10.1514 9.5072 10.1514 9.27118C10.1514 9.03515 10.2473 8.80879 10.4181 8.6419C10.5889 8.475 10.8205 8.38124 11.0621 8.38124C11.3036 8.38124 11.5353 8.475 11.706 8.6419C11.8768 8.80879 11.9728 9.03515 11.9728 9.27118C11.9728 9.5072 11.8768 9.73356 11.706 9.90046C11.5353 10.0674 11.3036 10.1611 11.0621 10.1611C10.8205 10.1611 10.5889 10.0674 10.4181 9.90046ZM20.2532 10.079C20.0824 9.91208 19.9865 9.68572 19.9865 9.44969C19.9865 9.21366 20.0824 8.9873 20.2532 8.82041C20.424 8.65351 20.6556 8.55975 20.8972 8.55975C21.1387 8.55975 21.3703 8.65351 21.5411 8.82041C21.7119 8.9873 21.8079 9.21366 21.8079 9.44969C21.8079 9.68572 21.7119 9.91208 21.5411 10.079C21.3703 10.2459 21.1387 10.3396 20.8972 10.3396C20.6556 10.3396 20.424 10.2459 20.2532 10.079ZM23.8427 9.41898C23.706 9.28544 23.6293 9.10432 23.6293 8.91546C23.6293 8.72661 23.706 8.54549 23.8427 8.41195C23.9794 8.27841 24.1647 8.20338 24.358 8.20338C24.5512 8.20338 24.7366 8.27841 24.8732 8.41195C25.0099 8.54549 25.0867 8.72661 25.0867 8.91546C25.0867 9.10432 25.0099 9.28544 24.8732 9.41898C24.7366 9.55252 24.5512 9.62755 24.358 9.62755C24.1647 9.62755 23.9794 9.55252 23.8427 9.41898ZM6.74665 9.36623C6.71006 9.27991 6.69123 9.1874 6.69123 9.09398C6.69123 9.00055 6.71006 8.90804 6.74665 8.82173C6.78323 8.73541 6.83686 8.65699 6.90446 8.59092C6.97207 8.52486 7.05232 8.47246 7.14065 8.43671C7.22898 8.40095 7.32365 8.38255 7.41926 8.38255C7.51486 8.38255 7.60953 8.40095 7.69786 8.43671C7.78619 8.47246 7.86644 8.52486 7.93405 8.59092C8.00165 8.65699 8.05528 8.73541 8.09186 8.82173C8.12845 8.90804 8.14728 9.00055 8.14728 9.09398C8.14728 9.1874 8.12845 9.27991 8.09186 9.36623C8.05528 9.45254 8.00165 9.53097 7.93405 9.59703C7.86644 9.66309 7.78619 9.7155 7.69786 9.75125C7.60953 9.787 7.51486 9.8054 7.41926 9.8054C7.32365 9.8054 7.22898 9.787 7.14065 9.75125C7.05232 9.7155 6.97207 9.66309 6.90446 9.59703C6.83686 9.53097 6.78323 9.45254 6.74665 9.36623ZM15.4648 6.21448C15.3283 6.08106 15.2516 5.90011 15.2516 5.71143C15.2516 5.52274 15.3283 5.34179 15.4648 5.20837C15.6014 5.07495 15.7865 5 15.9796 5C16.1727 5 16.3579 5.07495 16.4944 5.20837C16.6309 5.34179 16.7076 5.52274 16.7076 5.71143C16.7076 5.90011 16.6309 6.08106 16.4944 6.21448C16.3579 6.3479 16.1727 6.42285 15.9796 6.42285C15.7865 6.42285 15.6014 6.3479 15.4648 6.21448ZM11.6423 6.45939C11.6165 6.39153 11.6051 6.31926 11.6088 6.24696C11.6157 6.11003 11.6763 5.98095 11.7779 5.88644C11.8796 5.79192 12.0145 5.73921 12.1548 5.73921C12.2951 5.73921 12.43 5.79192 12.5317 5.88644C12.6333 5.98095 12.6939 6.11003 12.7008 6.24696C12.7045 6.31926 12.6931 6.39153 12.6673 6.45939C12.6415 6.52725 12.6019 6.58928 12.5508 6.64171C12.4998 6.69415 12.4383 6.7359 12.3702 6.76442C12.3022 6.79295 12.2289 6.80766 12.1548 6.80766C12.0807 6.80766 12.0074 6.79295 11.9393 6.76442C11.8713 6.7359 11.8098 6.69415 11.7588 6.64171C11.7077 6.58928 11.6681 6.52725 11.6423 6.45939ZM19.0532 7.15894C18.9507 7.05876 18.8931 6.92287 18.8931 6.78119C18.8931 6.6395 18.9507 6.50362 19.0532 6.40343C19.1557 6.30325 19.2948 6.24696 19.4398 6.24696C19.5848 6.24696 19.7238 6.30325 19.8263 6.40343C19.9289 6.50362 19.9865 6.6395 19.9865 6.78119C19.9865 6.92287 19.9289 7.05876 19.8263 7.15894C19.7238 7.25913 19.5848 7.31541 19.4398 7.31541C19.2948 7.31541 19.1557 7.25913 19.0532 7.15894ZM23.3372 13.0753C23.2846 12.9413 23.2601 12.7984 23.2653 12.655C23.2601 12.5117 23.2846 12.3687 23.3372 12.2348C23.3898 12.1009 23.4694 11.9787 23.5714 11.8754C23.6734 11.7722 23.7956 11.6902 23.9307 11.6341C24.0659 11.578 24.2112 11.5491 24.358 11.5491C24.5048 11.5491 24.6501 11.578 24.7852 11.6341C24.9204 11.6902 25.0426 11.7722 25.1445 11.8754C25.2465 11.9787 25.3262 12.1009 25.3788 12.2348C25.4314 12.3687 25.4558 12.5117 25.4507 12.655C25.4558 12.7984 25.4314 12.9413 25.3788 13.0753C25.3262 13.2092 25.2465 13.3314 25.1445 13.4346C25.0426 13.5378 24.9204 13.6199 24.7852 13.676C24.6501 13.732 24.5048 13.7609 24.358 13.7609C24.2112 13.7609 24.0659 13.732 23.9307 13.676C23.7956 13.6199 23.6734 13.5378 23.5714 13.4346C23.4694 13.3314 23.3898 13.2092 23.3372 13.0753ZM22.3501 12.9426C22.7865 13.5795 23.0395 14.3194 23.0826 15.0847C24.1207 15.4752 24.9766 16.2237 25.4888 17.1887C26.0009 18.1537 26.1338 19.2686 25.8624 20.3228C25.591 21.377 24.9341 22.2977 24.0156 22.911C23.0972 23.5243 21.9807 23.7879 20.877 23.6519C20.2983 24.3828 19.5561 24.9743 18.7072 25.3814C17.8582 25.7884 16.9252 26 15.9796 26C15.034 26 14.101 25.7884 13.2521 25.3814C12.4031 24.9743 11.6609 24.3828 11.0822 23.6519C9.95001 23.7813 8.80934 23.4909 7.88557 22.8383C6.96181 22.1856 6.32215 21.2181 6.09298 20.1269C5.86381 19.0357 6.0618 17.9002 6.64783 16.9448C7.23386 15.9893 8.16531 15.2834 9.25813 14.9665C9.32286 14.214 9.59062 13.4916 10.0341 12.8731C10.4776 12.2547 11.081 11.7621 11.7828 11.4458C12.4846 11.1295 13.2596 11.0006 14.029 11.0724C14.7983 11.1442 15.5344 11.414 16.1623 11.8544C16.7985 11.4061 17.5465 11.1335 18.3277 11.065C19.1089 10.9965 19.8945 11.1347 20.6023 11.465C21.31 11.7954 21.9137 12.3058 22.3501 12.9426Z"
      fill="#13c2c2" />
  </g>
  <defs>
    <clipPath id="clip0_51_71">
      <rect width="32" height="32" fill="white" />
    </clipPath>
  </defs>
</svg>
