<svg width="32" height="32" viewBox="0 0 32 32" fill="none" xmlns="http://www.w3.org/2000/svg">
  <g clip-path="url(#clip0_51_77)">
    <path fill-rule="evenodd" clip-rule="evenodd"
      d="M16 32C24.8366 32 32 24.8366 32 16C32 7.16344 24.8366 0 16 0C7.16344 0 0 7.16344 0 16C0 24.8366 7.16344 32 16 32ZM16 31C24.2843 31 31 24.2843 31 16C31 7.71573 24.2843 1 16 1C7.71573 1 1 7.71573 1 16C1 24.2843 7.71573 31 16 31Z"
      fill="#08979c" />
    <path
      d="M13.5288 21.6166C13.1058 21.9274 12.5936 22.0843 12.0736 22.0622C11.7393 22.0729 11.4065 22.0104 11.0976 21.8789C10.7886 21.7474 10.5106 21.5499 10.2819 21.2996C9.81387 20.79 9.58043 20.0945 9.58165 19.2132C9.58165 18.2809 9.8169 17.5569 10.2874 17.041C10.5243 16.7835 10.8123 16.5809 11.1321 16.4471C11.4518 16.3133 11.7958 16.2514 12.1409 16.2654C12.7436 16.2377 13.3324 16.4564 13.778 16.8732C14.0523 17.1594 14.2459 17.5163 14.3382 17.9062L13.2469 18.1747C13.1946 17.9039 13.0497 17.6611 12.8382 17.4902C12.6268 17.3193 12.3627 17.2314 12.0936 17.2424C11.9067 17.2336 11.7203 17.2683 11.5483 17.3439C11.3763 17.4195 11.2232 17.5339 11.1005 17.6787C10.8422 17.9783 10.713 18.4618 10.713 19.1293C10.713 19.8378 10.8385 20.3431 11.0859 20.6433C11.2035 20.7895 11.3522 20.9061 11.5205 20.9843C11.6889 21.0626 11.8725 21.1002 12.0573 21.0945C12.3355 21.1002 12.6056 20.9984 12.8139 20.8092C13.0545 20.5678 13.216 20.2557 13.276 19.9161L14.351 20.2536C14.2325 20.7891 13.9432 21.2687 13.5288 21.6166Z"
      fill="#08979c" />
    <path fill-rule="evenodd" clip-rule="evenodd"
      d="M19.2731 21.2959C18.788 21.8067 18.1465 22.0622 17.3486 22.0622C16.5507 22.0622 15.9038 21.808 15.4078 21.2996C14.9288 20.79 14.6863 20.0895 14.6802 19.1983C14.6654 18.7066 14.7502 18.2171 14.9294 17.7607C15.0547 17.4756 15.2284 17.2155 15.4423 16.9926C15.642 16.7763 15.8828 16.6043 16.1499 16.4873C16.5243 16.333 16.9252 16.2576 17.3286 16.2654C17.6853 16.2489 18.0414 16.3086 18.3743 16.4409C18.7071 16.5731 19.0095 16.775 19.2622 17.0336C19.7472 17.5469 19.9897 18.2592 19.9897 19.1703C19.9897 20.0814 19.7509 20.79 19.2731 21.2959ZM17.345 17.2331C17.1398 17.2265 16.9357 17.2662 16.7471 17.3493C16.5586 17.4324 16.3901 17.557 16.2536 17.7141C15.9759 18.0336 15.8364 18.5159 15.8352 19.161C15.834 19.8061 15.9771 20.2872 16.2645 20.6041C16.4029 20.7597 16.5715 20.884 16.7594 20.9691C16.9473 21.0541 17.1505 21.098 17.3559 21.098C17.5613 21.098 17.7645 21.0541 17.9524 20.9691C18.1403 20.884 18.3089 20.7597 18.4473 20.6041C18.7165 20.289 18.8511 19.7949 18.8511 19.1461C18.8511 18.4972 18.7147 18.0274 18.44 17.7067C18.3026 17.5502 18.1332 17.4266 17.944 17.3447C17.7547 17.2629 17.5502 17.2248 17.345 17.2331Z"
      fill="#08979c" />
    <path
      d="M22.8783 22.5264H20.5991C20.6267 22.2931 20.7084 22.07 20.8374 21.8757C21.0464 21.5961 21.2982 21.353 21.5832 21.156C21.7406 21.0459 21.8842 20.9163 22.0106 20.7701C22.0667 20.6983 22.0992 20.6102 22.1034 20.5184C22.1038 20.4774 22.0957 20.4367 22.0798 20.3991C22.0638 20.3615 22.0402 20.3278 22.0106 20.3002C21.9798 20.2697 21.9433 20.2459 21.9033 20.2302C21.8633 20.2145 21.8206 20.2072 21.7778 20.2089C21.7343 20.2074 21.691 20.2149 21.6503 20.2309C21.6097 20.2469 21.5727 20.2711 21.5413 20.3021C21.4667 20.3966 21.4228 20.5126 21.4158 20.634L20.6555 20.5706C20.6737 20.3896 20.7295 20.2148 20.8192 20.0578C20.9023 19.932 21.0192 19.8336 21.1557 19.7744C21.3479 19.7005 21.5527 19.6669 21.7578 19.6756C21.9696 19.667 22.1811 19.6986 22.3817 19.7688C22.5245 19.8266 22.6469 19.9274 22.7327 20.0578C22.8182 20.1856 22.8627 20.3374 22.8601 20.4923C22.859 20.6661 22.8084 20.8359 22.7146 20.9808C22.5688 21.1834 22.3881 21.3572 22.1816 21.4935C22.0288 21.6017 21.9269 21.68 21.8742 21.721C21.827 21.7576 21.7755 21.8092 21.7145 21.8703L21.6923 21.8925H22.8783V22.5264Z"
      fill="#08979c" />
    <path fill-rule="evenodd" clip-rule="evenodd"
      d="M16 30C23.732 30 30 23.732 30 16C30 8.26801 23.732 2 16 2C8.26801 2 2 8.26801 2 16C2 23.732 8.26801 30 16 30ZM15.4736 6.27317C15.3371 6.13331 15.2605 5.94361 15.2605 5.74581C15.2605 5.54801 15.3371 5.35831 15.4736 5.21844C15.61 5.07858 15.7951 5 15.988 5C16.181 5 16.3661 5.07858 16.5025 5.21844C16.639 5.35831 16.7156 5.54801 16.7156 5.74581C16.7156 5.94361 16.639 6.13331 16.5025 6.27317C16.3661 6.41304 16.181 6.49161 15.988 6.49161C15.7951 6.49161 15.61 6.41304 15.4736 6.27317ZM14.8967 9.47483C14.8967 9.77153 15.0116 10.0561 15.2163 10.2659C15.421 10.4757 15.6986 10.5935 15.988 10.5935C16.2775 10.5935 16.5551 10.4757 16.7598 10.2659C16.9644 10.0561 17.0794 9.77153 17.0794 9.47483C17.0794 9.32792 17.0512 9.18245 16.9963 9.04672C16.9415 8.91099 16.8611 8.78767 16.7598 8.68379C16.6584 8.57991 16.5381 8.4975 16.4057 8.44128C16.2733 8.38506 16.1314 8.35612 15.988 8.35612C15.8447 8.35612 15.7028 8.38506 15.5704 8.44128C15.438 8.4975 15.3177 8.57991 15.2163 8.68379C15.115 8.78767 15.0346 8.91099 14.9797 9.04672C14.9249 9.18245 14.8967 9.32792 14.8967 9.47483ZM6.79436 13.632C6.73952 13.4963 6.71131 13.3508 6.71133 13.2039C6.71131 13.057 6.73952 12.9115 6.79436 12.7757C6.8492 12.64 6.92958 12.5166 7.03093 12.4127C7.13228 12.3088 7.2526 12.2264 7.38502 12.1702C7.51744 12.114 7.65937 12.085 7.8027 12.085C7.94604 12.085 8.08797 12.114 8.22039 12.1702C8.35281 12.2264 8.47313 12.3088 8.57448 12.4127C8.67582 12.5166 8.75621 12.64 8.81105 12.7757C8.86589 12.9115 8.8941 13.057 8.89408 13.2039C8.8941 13.3508 8.86589 13.4963 8.81105 13.632C8.75621 13.7678 8.67582 13.8911 8.57448 13.995C8.47313 14.0989 8.35281 14.1813 8.22039 14.2376C8.08797 14.2938 7.94604 14.3227 7.8027 14.3227C7.65937 14.3227 7.51744 14.2938 7.38502 14.2376C7.2526 14.1813 7.13228 14.0989 7.03093 13.995C6.92958 13.8911 6.8492 13.7678 6.79436 13.632ZM10.2365 9.83165C10.1908 9.71852 10.1673 9.59728 10.1674 9.47484C10.1673 9.35241 10.1908 9.23116 10.2365 9.11804C10.2822 9.00492 10.3492 8.90213 10.4337 8.81555C10.5181 8.72896 10.6184 8.66028 10.7288 8.61342C10.8391 8.56656 10.9574 8.54245 11.0768 8.54245C11.1963 8.54245 11.3146 8.56656 11.4249 8.61342C11.5353 8.66028 11.6355 8.72896 11.72 8.81555C11.8044 8.90213 11.8714 9.00492 11.9171 9.11804C11.9628 9.23116 11.9863 9.35241 11.9863 9.47484C11.9863 9.59728 11.9628 9.71852 11.9171 9.83165C11.8714 9.94477 11.8044 10.0476 11.72 10.1341C11.6355 10.2207 11.5353 10.2894 11.4249 10.3363C11.3146 10.3831 11.1963 10.4072 11.0768 10.4072C10.9574 10.4072 10.8391 10.3831 10.7288 10.3363C10.6184 10.2894 10.5181 10.2207 10.4337 10.1341C10.3492 10.0476 10.2822 9.94477 10.2365 9.83165ZM20.0589 10.0181C20.0132 9.90497 19.9897 9.78372 19.9897 9.66129C19.9897 9.53885 20.0132 9.41761 20.0589 9.30448C20.1046 9.19136 20.1716 9.08857 20.2561 9.00199C20.3405 8.91541 20.4408 8.84672 20.5511 8.79986C20.6615 8.75301 20.7798 8.72889 20.8992 8.72889C21.0187 8.72889 21.1369 8.75301 21.2473 8.79986C21.3577 8.84672 21.4579 8.91541 21.5424 9.00199C21.6268 9.08857 21.6938 9.19136 21.7395 9.30448C21.7852 9.41761 21.8087 9.53885 21.8087 9.66129C21.8087 9.78372 21.7852 9.90497 21.7395 10.0181C21.6938 10.1312 21.6268 10.234 21.5424 10.3206C21.4579 10.4072 21.3577 10.4759 21.2473 10.5227C21.1369 10.5696 21.0187 10.5937 20.8992 10.5937C20.7798 10.5937 20.6615 10.5696 20.5511 10.5227C20.4408 10.4759 20.3405 10.4072 20.2561 10.3206C20.1716 10.234 20.1046 10.1312 20.0589 10.0181ZM23.8408 9.6293C23.7043 9.48943 23.6277 9.29973 23.6277 9.10193C23.6277 8.90413 23.7043 8.71443 23.8408 8.57457C23.9772 8.4347 24.1623 8.35612 24.3553 8.35612C24.5482 8.35612 24.7333 8.4347 24.8697 8.57457C25.0062 8.71443 25.0829 8.90413 25.0829 9.10193C25.0829 9.29973 25.0062 9.48943 24.8697 9.6293C24.7333 9.76916 24.5482 9.84774 24.3553 9.84774C24.1623 9.84774 23.9772 9.76916 23.8408 9.6293ZM6.92443 9.81575C6.78798 9.67589 6.71133 9.48619 6.71133 9.28839C6.71133 9.09059 6.78798 8.90089 6.92443 8.76102C7.06088 8.62115 7.24594 8.54258 7.43891 8.54258C7.63188 8.54258 7.81694 8.62115 7.95339 8.76102C8.08984 8.90089 8.1665 9.09059 8.1665 9.28839C8.1665 9.48619 8.08984 9.67589 7.95339 9.81575C7.81694 9.95562 7.63188 10.0342 7.43891 10.0342C7.24594 10.0342 7.06088 9.95562 6.92443 9.81575ZM11.6225 6.30516C11.6225 6.37862 11.6366 6.45135 11.6641 6.51922C11.6915 6.58708 11.7317 6.64874 11.7824 6.70069C11.833 6.75263 11.8932 6.79383 11.9594 6.82194C12.0256 6.85005 12.0965 6.86452 12.1682 6.86452C12.2399 6.86452 12.3108 6.85005 12.377 6.82194C12.4432 6.79383 12.5034 6.75263 12.5541 6.70069C12.6047 6.64874 12.6449 6.58708 12.6724 6.51922C12.6998 6.45135 12.7139 6.37862 12.7139 6.30516C12.7139 6.23171 12.6998 6.15897 12.6724 6.09111C12.6449 6.02324 12.6047 5.96158 12.5541 5.90964C12.5034 5.8577 12.4432 5.8165 12.377 5.78839C12.3108 5.76027 12.2399 5.74581 12.1682 5.74581C12.0965 5.74581 12.0256 5.76027 11.9594 5.78839C11.8932 5.8165 11.833 5.8577 11.7824 5.90964C11.7317 5.96158 11.6915 6.02324 11.6641 6.09111C11.6366 6.15897 11.6225 6.23171 11.6225 6.30516ZM18.8984 6.86451C18.8984 7.01286 18.9559 7.15514 19.0582 7.26004C19.1605 7.36494 19.2993 7.42387 19.4441 7.42387C19.5888 7.42387 19.7276 7.36494 19.8299 7.26004C19.9323 7.15514 19.9897 7.01286 19.9897 6.86451C19.9897 6.71616 19.9323 6.57389 19.8299 6.46899C19.7276 6.36409 19.5888 6.30516 19.4441 6.30516C19.2993 6.30516 19.1605 6.36409 19.0582 6.46899C18.9559 6.57389 18.8984 6.71616 18.8984 6.86451ZM23.2639 13.0174C23.2639 13.1643 23.2921 13.3098 23.3469 13.4456C23.4018 13.5813 23.4821 13.7047 23.5835 13.8086C23.6848 13.9125 23.8051 13.9949 23.9376 14.0511C24.07 14.1073 24.2119 14.1363 24.3553 14.1363C24.4986 14.1363 24.6405 14.1073 24.7729 14.0511C24.9054 13.9949 25.0257 13.9125 25.127 13.8086C25.2284 13.7047 25.3088 13.5813 25.3636 13.4456C25.4184 13.3098 25.4467 13.1643 25.4466 13.0174C25.4467 12.8705 25.4184 12.725 25.3636 12.5893C25.3088 12.4535 25.2284 12.3302 25.127 12.2263C25.0257 12.1224 24.9054 12.04 24.7729 11.9837C24.6405 11.9275 24.4986 11.8986 24.3553 11.8986C24.2119 11.8986 24.07 11.9275 23.9376 11.9837C23.8051 12.04 23.6848 12.1224 23.5835 12.2263C23.4821 12.3302 23.4018 12.4535 23.3469 12.5893C23.2921 12.725 23.2639 12.8705 23.2639 13.0174ZM23.082 15.5643C23.039 14.7625 22.7863 13.9874 22.3504 13.3201C21.9145 12.6529 21.3115 12.1182 20.6046 11.7721C19.8977 11.426 19.1129 11.2813 18.3327 11.3531C17.5524 11.4249 16.8054 11.7106 16.1699 12.1802C15.5428 11.7189 14.8076 11.4362 14.0391 11.361C13.2707 11.2859 12.4966 11.4209 11.7956 11.7524C11.0947 12.0839 10.4921 12.5999 10.0491 13.2479C9.6062 13.896 9.33882 14.6528 9.27424 15.4413C8.22473 15.755 7.32061 16.4458 6.72748 17.3872C6.13434 18.3285 5.89191 19.4574 6.04456 20.5671C6.19722 21.6767 6.73476 22.6928 7.55872 23.4293C8.38268 24.1658 9.43791 24.5734 10.5311 24.5774C10.7203 24.5773 10.9092 24.5649 11.0968 24.5401C11.6748 25.3057 12.4161 25.9255 13.2639 26.3519C14.1118 26.7783 15.0436 27 15.988 27C16.9324 27 17.8643 26.7783 18.7121 26.3519C19.56 25.9255 20.3013 25.3057 20.8792 24.5401C21.0668 24.5649 21.2558 24.5773 21.4449 24.5774C22.5079 24.5793 23.5379 24.1993 24.356 23.5037C25.1741 22.808 25.7286 21.8405 25.9232 20.7693C26.1177 19.6981 25.9401 18.5909 25.421 17.6401C24.902 16.6892 24.0744 15.9548 23.082 15.5643Z"
      fill="#08979c" />
  </g>
  <defs>
    <clipPath id="clip0_51_77">
      <rect width="32" height="32" fill="white" />
    </clipPath>
  </defs>
</svg>
