<?xml version="1.0" standalone="no"?>
<!DOCTYPE svg PUBLIC "-//W3C//DTD SVG 1.1//EN" "http://www.w3.org/Graphics/SVG/1.1/DTD/svg11.dtd"><svg t="1720423902476"
  class="icon" viewBox="0 0 1509 1024" version="1.1" xmlns="http://www.w3.org/2000/svg" p-id="4503" width="47.15625"
  height="32" xmlns:xlink="http://www.w3.org/1999/xlink">
  <path
    d="M753.392 137.775c50.573 0 99.624 9.887 145.76 29.406 44.616 18.886 84.669 45.883 119.144 80.359 34.476 34.475 61.473 74.528 80.359 119.143 19.519 46.136 29.405 95.188 29.405 145.76 0 50.573-9.886 99.625-29.405 145.761-18.886 44.616-45.883 84.668-80.359 119.144-34.475 34.475-74.528 61.473-119.143 80.358-46.137 19.52-95.188 29.406-145.76 29.406-50.573 0-99.625-9.887-145.761-29.406-44.616-18.885-84.668-45.883-119.144-80.358-34.475-34.476-61.473-74.528-80.358-119.144-19.52-46.136-29.406-95.188-29.406-145.76 0-50.573 9.886-99.625 29.406-145.761 18.885-44.615 45.883-84.668 80.358-119.143 34.476-34.476 74.528-61.473 119.144-80.359 46.136-19.52 95.188-29.406 145.76-29.406m0-79.598c-250.835 0-454.266 203.305-454.266 454.267 0 250.835 203.431 454.266 454.266 454.266s454.266-203.431 454.266-454.266c0-250.962-203.43-454.267-454.266-454.267z m0 0"
    fill="#3498DB" p-id="4504"></path>
  <path
    d="M753.266 569.607c30.546 0 55.262-24.843 55.262-55.262 0-30.547-24.716-55.262-55.262-55.262s-55.263 24.715-55.263 55.262c-0.127 30.546 24.716 55.262 55.263 55.262z m232.33 48.165c-40.433-30.04-93.16-65.15-142.466-94.555-2.155-1.267-4.69-1.394-6.971-0.38-2.155 1.014-3.803 3.042-4.183 5.577-3.168 19.52-13.562 36.377-28.518 48.291-1.901 1.521-3.042 4.056-2.789 6.337 0.127 2.409 1.648 4.69 3.803 5.958 94.934 52.347 207.107 108.37 239.174 109.13 3.549-0.127 8.239-0.507 11.66-5.323 1.142-2.155 1.522-4.056 1.522-5.577-2.789-18.125-30.547-37.645-71.233-69.458zM725.126 439.69c8.873-3.422 18.252-5.45 28.012-5.45 9.76 0 19.266 2.028 28.138 5.45 0.887 0.38 1.774 0.507 2.662 0.507 1.52 0 3.042-0.38 4.31-1.394 2.027-1.394 3.168-3.676 3.168-6.21-0.887-59.7-4.69-121.426-10.14-168.45-2.662-23.575-5.957-43.347-9.633-57.67-4.816-13.689-4.563-24.209-18.505-27.25-13.69 3.041-13.69 13.561-18.506 27.25-10.773 42.714-18.251 136.255-19.646 226.12 0 2.534 1.141 4.816 3.17 6.21a8.046 8.046 0 0 0 6.97 0.887z m-21.674 141.451c0.254-2.408-0.76-4.943-2.661-6.464-14.45-12.295-24.336-29.532-26.998-49.178-0.38-2.535-1.9-4.563-4.182-5.704-2.282-1.14-4.944-1.014-6.972 0.254-49.812 29.659-101.779 63.627-141.577 92.4-39.926 30.419-66.924 48.797-69.839 66.795-0.127 1.395 0.254 3.676 1.521 5.577 3.55 5.197 8.492 5.45 12.168 5.45 32.32-0.76 140.184-51.586 234.484-103.553 2.409-1.014 3.803-3.169 4.056-5.577z m0 0"
    fill="#3498DB" p-id="4505"></path>
</svg>
