<?xml version="1.0" standalone="no"?>
<!DOCTYPE svg PUBLIC "-//W3C//DTD SVG 1.1//EN" "http://www.w3.org/Graphics/SVG/1.1/DTD/svg11.dtd"><svg t="1720424810683"
  class="icon" viewBox="0 0 1024 1024" version="1.1" xmlns="http://www.w3.org/2000/svg" p-id="17064" width="32"
  height="32" xmlns:xlink="http://www.w3.org/1999/xlink">
  <path
    d="M429.292308 283.569231c0 23.630769 7.876923 47.261538 27.56923 63.015384 15.753846 15.753846 39.384615 27.569231 63.015385 27.569231 23.630769 0 47.261538-7.876923 63.015385-27.569231 15.753846-15.753846 27.569231-39.384615 27.56923-63.015384 0-23.630769-7.876923-47.261538-27.56923-63.015385-15.753846-15.753846-39.384615-27.569231-63.015385-27.569231-23.630769 0-47.261538 7.876923-63.015385 27.569231-15.753846 19.692308-27.569231 39.384615-27.56923 63.015385z m177.230769 362.338461c0 23.630769 7.876923 47.261538 27.569231 63.015385 15.753846 15.753846 39.384615 27.569231 63.015384 27.569231 23.630769 0 47.261538-7.876923 63.015385-27.569231 15.753846-15.753846 27.569231-39.384615 27.569231-63.015385 0-23.630769-7.876923-47.261538-27.569231-63.015384-15.753846-15.753846-39.384615-27.569231-63.015385-27.569231-23.630769 0-47.261538 7.876923-63.015384 27.569231-19.692308 15.753846-27.569231 39.384615-27.569231 63.015384z m-441.107692 27.569231c-3.938462-11.815385-7.876923-23.630769-7.876923-35.446154 0-23.630769 7.876923-47.261538 27.56923-63.015384 15.753846-15.753846 39.384615-27.569231 63.015385-27.569231 23.630769 0 47.261538 7.876923 63.015385 27.569231 15.753846 15.753846 27.569231 39.384615 27.56923 63.015384 0 11.815385-3.938462 23.630769-7.876923 35.446154-3.938462 11.815385-11.815385 19.692308-19.692307 27.569231-7.876923 7.876923-19.692308 15.753846-27.569231 19.692308-11.815385 3.938462-23.630769 7.876923-35.446154 7.876923-11.815385 0-23.630769-3.938462-35.446154-7.876923-11.815385-3.938462-19.692308-11.815385-27.569231-19.692308-11.815385-7.876923-15.753846-19.692308-19.692307-27.569231z m263.876923 94.523077c0 15.753846 7.876923 31.507692 15.753846 39.384615s23.630769 15.753846 39.384615 15.753847 31.507692-7.876923 39.384616-15.753847c11.815385-11.815385 15.753846-23.630769 15.753846-39.384615s-7.876923-31.507692-15.753846-39.384615c-11.815385-11.815385-23.630769-15.753846-39.384616-15.753847s-31.507692 7.876923-39.384615 15.753847-15.753846 23.630769-15.753846 39.384615z m338.707692-291.446154c-11.815385-11.815385-15.753846-23.630769-15.753846-39.384615s7.876923-31.507692 15.753846-39.384616c11.815385-11.815385 23.630769-15.753846 39.384615-15.753846s31.507692 7.876923 39.384616 15.753846c11.815385 11.815385 15.753846 23.630769 15.753846 39.384616s-7.876923 31.507692-15.753846 39.384615c-11.815385 11.815385-23.630769 15.753846-39.384616 15.753846-11.815385 0-27.569231-3.938462-39.384615-15.753846zM354.461538 468.676923c0 15.753846 7.876923 31.507692 15.753847 39.384615 11.815385 11.815385 23.630769 15.753846 39.384615 15.753847s31.507692-7.876923 39.384615-15.753847c11.815385-11.815385 15.753846-23.630769 15.753847-39.384615s-7.876923-31.507692-15.753847-39.384615c-11.815385-11.815385-23.630769-15.753846-39.384615-15.753846s-31.507692 7.876923-39.384615 15.753846c-7.876923 11.815385-15.753846 23.630769-15.753847 39.384615z m-169.353846-78.769231c-11.815385-11.815385-15.753846-23.630769-15.753846-39.384615s7.876923-31.507692 15.753846-39.384615c11.815385-11.815385 23.630769-15.753846 39.384616-15.753847s31.507692 7.876923 39.384615 15.753847c11.815385 11.815385 15.753846 23.630769 15.753846 39.384615s-7.876923 31.507692-15.753846 39.384615c-11.815385 11.815385-23.630769 15.753846-39.384615 15.753846s-31.507692-3.938462-39.384616-15.753846z"
    fill="#606060" p-id="17065"></path>
</svg>
