<svg t="1754387469098" class="icon" viewBox="0 0 1024 1024" version="1.1" xmlns="http://www.w3.org/2000/svg" p-id="10761" width="32" height="32"><path d="M292.571429 487.619048v-48.761905h-46.32381c4.87619-63.390476 29.257143-119.466667 68.266667-163.352381l34.133333 34.133333 34.133333-34.133333-34.133333-34.133333c46.32381-39.009524 102.4-63.390476 163.352381-68.266667V219.428571h48.761905V173.104762c63.390476 4.87619 119.466667 29.257143 163.352381 68.266667l-175.542857 175.542857c-4.87619-2.438095-7.314286-2.438095-12.190477-2.438096-26.819048 0-48.761905 21.942857-48.761904 48.761905s21.942857 48.761905 48.761904 48.761905 48.761905-21.942857 48.761905-48.761905c0-4.87619 0-7.314286-2.438095-12.190476l175.542857-175.542857c39.009524 46.32381 63.390476 102.4 68.266667 163.352381H780.190476v48.761905h143.847619c0-7.314286 2.438095-17.066667 2.438095-24.380953 0-214.552381-175.542857-390.095238-390.095238-390.095238S146.285714 248.685714 146.285714 463.238095c0 7.314286 0 17.066667 2.438096 24.380953H292.571429zM0 560.761905h1024v97.523809H0zM0 853.333333h1024v97.52381H0zM365.714286 755.809524c0-26.819048 21.942857-24.380952 48.761904-24.380953s48.761905-2.438095 48.761905 24.380953h24.380953c0-41.447619-31.695238-48.761905-73.142858-48.761905s-73.142857 7.314286-73.142857 48.761905c0 26.819048-21.942857 24.380952-48.761904 24.380952s-48.761905 2.438095-48.761905-24.380952H219.428571c0 41.447619 31.695238 48.761905 73.142858 48.761905s73.142857-7.314286 73.142857-48.761905zM731.428571 755.809524c0-26.819048 21.942857-24.380952 48.761905-24.380953s48.761905-2.438095 48.761905 24.380953h24.380952c0-41.447619-31.695238-48.761905-73.142857-48.761905s-73.142857 7.314286-73.142857 48.761905c0 26.819048-21.942857 24.380952-48.761905 24.380952s-48.761905 2.438095-48.761904-24.380952h-24.380953c0 41.447619 31.695238 48.761905 73.142857 48.761905s73.142857-7.314286 73.142857-48.761905z" fill="#808080" p-id="10762"></path></svg>
