<?xml version="1.0" standalone="no"?>
<!DOCTYPE svg PUBLIC "-//W3C//DTD SVG 1.1//EN" "http://www.w3.org/Graphics/SVG/1.1/DTD/svg11.dtd"><svg t="1720057261844"
  class="icon" viewBox="0 0 1024 1024" version="1.1" xmlns="http://www.w3.org/2000/svg" p-id="4283" width="32"
  height="32" xmlns:xlink="http://www.w3.org/1999/xlink">
  <path
    d="M512.00008 1023.984a508.528108 508.528108 0 0 1-199.289772-40.238742 513.759945 513.759945 0 0 1-86.989282-47.230524 513.855942 513.855942 0 0 1-75.757632-62.526046 511.776007 511.776007 0 0 1-62.526046-75.757633 511.008031 511.008031 0 0 1-47.182526-86.973282A508.7841 508.7841 0 0 1 0.016079 512a508.7841 508.7841 0 0 1 40.238743-199.273773 512.97597 512.97597 0 0 1 47.182526-86.989281 515.023906 515.023906 0 0 1 62.526046-75.757633 518.863786 518.863786 0 0 1 75.757632-62.526046 513.711947 513.711947 0 0 1 87.005281-47.182525A508.592106 508.592106 0 0 1 512.00008 0.016a508.928096 508.928096 0 0 1 199.289772 40.254742 512.479985 512.479985 0 0 1 86.957283 47.182525 515.903878 515.903878 0 0 1 75.773632 62.526046 514.639918 514.639918 0 0 1 62.526046 75.757633 513.007969 513.007969 0 0 1 47.230524 87.005281A509.536077 509.536077 0 0 1 1023.98408 512a509.536077 509.536077 0 0 1-40.190744 199.273773 511.008031 511.008031 0 0 1-47.230524 86.973282 511.408018 511.408018 0 0 1-62.526046 75.757632 510.960032 510.960032 0 0 1-75.773632 62.526046 513.583951 513.583951 0 0 1-86.957282 47.230524A508.7841 508.7841 0 0 1 512.00008 1023.984z m0-1001.376706A489.936689 489.936689 0 0 0 22.639373 511.984 489.936689 489.936689 0 0 0 512.00008 1001.360707 489.90469 489.90469 0 0 0 1001.328788 511.984 489.90469 489.90469 0 0 0 512.00008 22.623293z m1.59995 950.850285a457.009718 457.009718 0 0 1-178.970407-36.126871 458.305678 458.305678 0 0 1-146.139433-98.524921 458.56167 458.56167 0 0 1-98.524921-146.171432 456.929721 456.929721 0 0 1-36.126871-178.986406 456.721727 456.721727 0 0 1 36.126871-178.954408 458.113684 458.113684 0 0 1 98.524921-146.155433 458.305678 458.305678 0 0 1 146.139433-98.524921A457.009718 457.009718 0 0 1 513.60003 53.886316a457.009718 457.009718 0 0 1 178.970407 36.126871 458.305678 458.305678 0 0 1 146.139433 98.524921 458.113684 458.113684 0 0 1 98.524921 146.155433 456.721727 456.721727 0 0 1 36.126871 178.954408 456.929721 456.929721 0 0 1-36.126871 178.986406 458.56167 458.56167 0 0 1-98.524921 146.171432 458.305678 458.305678 0 0 1-146.139433 98.524921 457.009718 457.009718 0 0 1-178.89041 36.142871z m-119.37227-290.694915l149.387332 85.74132v-34.078935z m119.228274-14.271554l282.023187 90.109184V728.937221zM280.455316 627.500391c-3.071904 15.471517 6.767789 20.511359 18.159432 26.335177a46.39855 46.39855 0 0 1 26.655167 25.247211 59.19815 59.19815 0 0 1-4.543858 52.014374 97.484954 97.484954 0 0 0 62.222056-60.7981c13.327584-46.910534-21.343333-97.196963-22.815287-99.324896a20.79935 20.79935 0 0 1-4.927846 15.183526 16.95947 16.95947 0 0 1-12.49561 4.447861 35.53489 35.53489 0 0 1-10.22368-1.59995c4.591857-44.15862-50.270429-82.765414-51.966376-83.933378 8.367739 32.110997-9.119715 49.390457-29.375082 69.389832a117.852317 117.852317 0 0 0-41.886691 70.221806 72.861723 72.861723 0 0 0 25.455204 69.565826 91.005156 91.005156 0 0 0 32.350989 16.927471 78.39755 78.39755 0 0 1-7.727758-75.885629 79.9975 79.9975 0 0 1 21.183338-27.775132z m257.783944-18.399425l284.16712 80.269491v-47.278522z m112.780476-231.320772L401.939519 637.916065l295.286773-237.256586-46.206556-22.879285zM413.12317 264.839724l-37.75882 17.135464v305.910441l37.75882-323.045905z m340.053373 250.136183L574.07814 587.885629l201.465704-47.182526-22.3993-25.711196z m-29.391081-49.998438l-167.914753 102.908785 186.122184-85.78932-18.207431-17.103465zM506.896239 277.703322L413.12317 535.007281l134.3958-201.5937h41.998688a0.351989 0.351989 0 0 0 0.271991-0.143996c3.631887-3.791882-0.095997-86.3973-0.271991-89.869191l-41.998688 34.302928z m92.349115 42.910659l-132.939846 205.817568 158.139058-191.562014-25.199212-14.271554z"
    fill="#52c41a" p-id="4284"></path>
</svg>
