<svg width="32" height="32" viewBox="0 0 32 32" fill="none" xmlns="http://www.w3.org/2000/svg">
  <g clip-path="url(#clip0_50_15)">
    <path fill-rule="evenodd" clip-rule="evenodd"
      d="M16 32C24.8366 32 32 24.8366 32 16C32 7.16344 24.8366 0 16 0C7.16344 0 0 7.16344 0 16C0 24.8366 7.16344 32 16 32ZM16 31C24.2843 31 31 24.2843 31 16C31 7.71573 24.2843 1 16 1C7.71573 1 1 7.71573 1 16C1 24.2843 7.71573 31 16 31Z"
      fill="#531dab" />
    <path
      d="M16 30C23.732 30 30 23.732 30 16C30 12.1843 28.4735 8.72518 25.9979 6.19993H16.7384V6.88253H18.186V8.15434H17.4087V8.95191H18.5069C19.4915 8.95191 20.2896 9.75616 20.2896 10.7482V24.8385C20.2896 25.7543 19.6094 26.5094 18.7303 26.6203L19.1487 28H18.1804L17.7664 26.6348H13.7202L13.3056 28H12.3358L12.7549 26.62C11.8768 26.5083 11.1975 25.7536 11.1975 24.8385V17.1377H10.537V16.1298H6V14.363H10.537V13.4236H11.1975V10.7482C11.1975 9.75613 11.9957 8.95191 12.9803 8.95191H14.0856V8.15434H13.3012V6.88253H15.1125V5H24.6612C22.2783 3.12114 19.2701 2 16 2C8.26801 2 2 8.26801 2 16C2 23.732 8.26801 30 16 30Z"
      fill="#531dab" />
  </g>
  <defs>
    <clipPath id="clip0_50_15">
      <rect width="32" height="32" fill="white" />
    </clipPath>
  </defs>
</svg>
