<?xml version="1.0" standalone="no"?>
<!DOCTYPE svg PUBLIC "-//W3C//DTD SVG 1.1//EN" "http://www.w3.org/Graphics/SVG/1.1/DTD/svg11.dtd"><svg t="1720425001413"
  class="icon" viewBox="0 0 1024 1024" version="1.1" xmlns="http://www.w3.org/2000/svg" p-id="19494" width="32"
  height="32" xmlns:xlink="http://www.w3.org/1999/xlink">
  <path
    d="M495.047111 256.170667A311.409778 311.409778 0 1 0 494.933333 878.933333a311.409778 311.409778 0 0 0 0.113778-622.819555z m0 566.897777a255.544889 255.544889 0 1 1 0-511.146666 255.544889 255.544889 0 0 1 0 511.146666zM113.777778 284.785778a83.797333 83.797333 0 1 1 167.594666-3.925334A83.797333 83.797333 0 0 1 113.777778 284.842667z m596.992-19.740445a64.113778 64.113778 0 1 1 128.170666 0 64.113778 64.113778 0 0 1-128.170666 0z m119.125333-111.217777A40.163556 40.163556 0 1 1 910.222222 154.055111a40.163556 40.163556 0 0 1-80.327111-0.227555z m-506.595555 15.644444a31.459556 31.459556 0 1 1 62.919111 0 31.459556 31.459556 0 0 1-62.919111 0z m288.426666 466.830222c3.072-2.389333 9.045333-7.736889 17.806222-13.824 12.060444-7.907556 22.584889-17.92 31.004445-29.582222a51.484444 51.484444 0 0 0 8.533333-27.989333 43.463111 43.463111 0 0 0-27.761778-41.130667 98.702222 98.702222 0 0 0-36.238222-5.347556c-11.946667-0.568889-23.836444 1.308444-34.986666 5.518223a43.804444 43.804444 0 0 0-19.569778 16.042666 71.111111 71.111111 0 0 0-9.500445 29.013334l44.259556 3.697777a32.312889 32.312889 0 0 1 7.168-18.773333 20.650667 20.650667 0 0 1 27.306667-0.227555 16.611556 16.611556 0 0 1 5.347555 12.458666 24.519111 24.519111 0 0 1-5.404444 14.222222 129.536 129.536 0 0 1-24.860445 21.788445 190.065778 190.065778 0 0 0-43.121778 38.798222c-5.347556 11.377778-9.955556 22.983111-13.824 34.929778h120.888889v-27.989333h-57.344c3.982222 0 7.623111-9.216 10.467556-11.662223l-0.113778 0.056889z m-282.737778-162.531555h60.928V542.72h66.503112V473.884444h60.928v196.892445H456.192v-79.644445H389.688889v79.644445H328.931556V473.770667z"
    fill="#7C94B9" p-id="19495"></path>
</svg>
