<?xml version="1.0" standalone="no"?>
<!DOCTYPE svg PUBLIC "-//W3C//DTD SVG 1.1//EN" "http://www.w3.org/Graphics/SVG/1.1/DTD/svg11.dtd"><svg t="1720425140585"
  class="icon" viewBox="0 0 1024 1024" version="1.1" xmlns="http://www.w3.org/2000/svg" p-id="21612" width="32"
  height="32" xmlns:xlink="http://www.w3.org/1999/xlink">
  <path
    d="M783.189333 923.477333v-60.245333c105.130667-81.237333 173.056-208.384 173.056-351.573333 0-81.066667-22.016-156.842667-59.904-222.378667h55.296c33.792 66.901333 53.418667 142.336 53.418667 222.378667-0.170667 172.032-88.405333 323.413333-221.866667 411.818666zM511.488 66.901333c-81.066667 0-156.842667 22.016-222.378667 59.904V71.509333c66.901333-33.792 142.336-53.418667 222.378667-53.418666 172.032 0 323.413333 88.234667 411.818667 221.866666h-60.245334C781.653333 134.826667 654.677333 66.901333 511.488 66.901333zM66.730667 511.658667c0 81.066667 22.016 156.842667 59.904 222.378666H71.338667C37.546667 667.136 18.090667 591.701333 18.090667 511.658667c0-172.032 88.234667-323.413333 221.866666-411.818667v60.245333c-105.301333 81.408-173.226667 208.384-173.226666 351.573334zM159.914667 783.36c81.237333 105.130667 208.384 173.056 351.573333 173.056 81.066667 0 156.842667-22.016 222.378667-59.904v55.296c-66.901333 33.792-142.336 53.418667-222.378667 53.418667-172.032 0-323.413333-88.234667-411.818667-221.866667h60.245334z"
    p-id="21613"></path>
  <path
    d="M587.776 530.944c3.242667-17.578667 4.949333-35.669333 4.949333-54.101333 0-163.669333-132.608-296.277333-296.106666-296.277334h-0.170667c61.952-40.277333 135.68-64 215.04-64 44.714667 0 87.722667 7.850667 127.829333 21.504 4.437333 6.314667 8.704 12.629333 12.629334 19.456 72.533333 125.952 42.496 282.624-64.170667 373.418667z"
    p-id="21614"></path>
  <path
    d="M696.832 860.16c-55.296 29.525333-118.272 46.250667-185.344 46.250667-58.197333 0-113.322667-12.970667-162.986667-35.498667-63.829333-123.562667-32.768-273.066667 69.973334-360.96-3.242667 17.578667-4.949333 35.669333-4.949334 54.101333 0.170667 159.402667 125.952 289.28 283.306667 296.106667z"
    p-id="21615"></path>
  <path
    d="M671.402667 150.869333c117.589333 52.224 204.8 160.085333 228.352 290.304-4.437333 10.24-9.386667 20.309333-15.018667 30.208-72.533333 125.610667-223.232 178.005333-355.157333 131.072 16.896-5.973333 33.28-13.482667 49.322666-22.698666 141.653333-81.749333 190.122667-262.997333 108.373334-404.650667-4.949333-8.362667-10.410667-16.554667-15.872-24.234667z"
    p-id="21616"></path>
  <path
    d="M325.973333 860.16C214.528 800.768 134.997333 689.322667 119.637333 558.250667c0.853333-1.536 1.536-3.242667 2.56-4.949334 72.704-125.781333 223.402667-178.346667 355.157334-131.584-16.896 5.973333-33.28 13.482667-49.322667 22.869334-141.653333 81.92-190.464 263.338667-108.885333 404.821333 2.048 3.584 4.608 7.168 6.826666 10.752z"
    p-id="21617"></path>
  <path
    d="M751.957333 824.32c-8.192 0.682667-16.384 1.194667-24.746666 1.194667-145.066667 0-265.728-104.277333-291.157334-242.005334 13.653333 11.605333 28.330667 22.186667 44.373334 31.402667 141.653333 81.749333 322.730667 33.28 404.650666-108.373333 7.338667-12.8 13.482667-26.112 18.773334-39.424 1.706667 14.677333 2.730667 29.525333 2.730666 44.544-0.170667 127.488-60.928 240.469333-154.624 312.661333z"
    p-id="21618"></path>
  <path
    d="M508.757333 409.6c-134.485333-77.482667-304.469333-37.717333-391.509333 87.04 4.608-121.002667 63.317333-227.84 152.746667-297.130667 141.482667 4.096 258.048 106.496 283.136 241.322667-13.482667-11.434667-28.330667-22.016-44.373334-31.232z"
    p-id="21619"></path>
  <path
    d="M511.488 393.557333v44.714667c40.448 0 73.216 32.938667 73.386667 73.386667 0 40.448-32.938667 73.216-73.386667 73.386666-40.448 0-73.216-32.938667-73.386667-73.386666 0-40.448 32.938667-73.216 73.386667-73.386667v-89.6c-90.112 0-162.986667 72.874667-162.986667 162.986667s72.874667 162.986667 162.986667 162.986666 162.986667-72.874667 162.986667-162.986666-72.874667-162.986667-162.986667-162.986667v44.885333z"
    p-id="21620"></path>
</svg>
