<svg t="1754387322322" class="icon" viewBox="0 0 1024 1024" version="1.1" xmlns="http://www.w3.org/2000/svg" p-id="9451" width="32" height="32"><path d="M347.01380541 700.77730712c-48.61662116 13.44715077-76.54531881 43.44464064-81.71730005 89.99247029-6.20637663 43.44464064 9.30956565 79.64850783 44.47903604 106.54280939 31.03188667 22.75671642 66.20135706 39.30705551 105.50841327 47.58222576 40.34145162 9.30956565 75.51092341 9.30956565 106.54280938-1.03439681 84.82048906-26.89430155 125.16194068-83.78609225 122.05875237-171.70976963-1.0343961-27.92869765-7.24077344-54.82299849-18.61913201-84.82048977-12.41275467-33.10067818-26.89430155-59.99497972-46.54782895-81.71729934-10.34396175-10.34396175-10.34396175-20.68792421-2.06879291-28.96309446s17.5847359-9.30956565 28.96309376-6.20637663c48.61662187 23.79111253 80.68290394 59.99498043 94.13005471 108.61160159 13.44715077 48.61662116 44.47903674 75.51092271 87.92367808 81.71730004 43.44464064 6.20637663 79.64850783-9.30956565 105.50841257-45.51343284 22.75671642-31.03188667 39.30705551-66.20135706 47.58222576-105.50841328 9.30956565-40.34145162 9.30956565-75.51092341-1.03439681-106.54280938-26.89430155-84.82048906-83.78609225-125.16194068-171.70976963-119.98996015-27.92869765 1.0343961-55.8573946 6.20637733-85.85488517 17.5847366-33.10067818 12.41275467-59.99497972 26.89430155-81.71730004 46.54782824-10.34396175 10.34396175-20.68792421 10.34396175-28.96309446 2.06879292s-10.34396175-18.619132-4.13758442-28.96309376c9.30956565-19.65352811 20.68792421-37.2382633 36.2038672-52.75420628 19.65352811-19.65352811 43.44464064-33.10067818 70.33894218-41.37584843 48.61662116-13.44715077 76.54531881-43.44464064 82.75169615-88.95807419 6.20637663-43.44464064-9.30956565-79.64850783-44.47903674-106.54280867-31.03188667-22.75671642-66.20135706-39.30705551-105.50841328-47.58222576-40.34145162-9.30956565-75.51092341-9.30956565-106.54280867 1.0343961-84.82048906 26.89430155-125.16194068 83.78609225-122.05875237 171.70977104 1.0343961 27.92869765 8.27516954 55.8573946 18.61913201 84.82048836 12.41275467 33.10067818 27.92869765 61.02937583 46.54782895 81.71730075 9.30956565 9.30956565 9.30956565 19.65352811 2.06879291 28.96309305s-18.619132 10.34396175-28.96309446 6.20637733c-19.65352811-9.30956565-36.2038672-21.72232032-52.75420629-38.2726594-19.65352811-19.65352811-33.10067818-43.44464064-41.37584842-70.33894219-13.44715077-48.61662116-44.47903674-75.51092271-87.92367738-81.71730074-43.44464064-6.20637663-78.61411173 8.27516954-105.50841328 43.44464134-22.75671642 31.03188667-39.30705551 66.20135706-47.58222505 105.50841257-9.30956565 40.34145162-9.30956565 75.51092341 0 107.57720619 26.89430155 84.82048906 83.78609225 125.16194068 172.74416644 121.02435555 27.92869765-1.0343961 56.8917907-7.24077344 85.85488517-17.58473519 33.10067818-12.41275467 58.96058362-27.92869765 80.68290393-47.58222576 10.34396175-10.34396175 20.68792421-10.34396175 28.96309376-2.06879221s10.34396175 18.619132 5.17198052 29.99748986c-22.75671642 47.58222576-58.96058433 79.64850783-107.57720477 93.0956579m164.46899689-230.67035325c12.41275467 0 20.68792421 4.13758513 28.96309305 12.41275397s12.41275467 18.6191313 13.44715078 29.99748986c-1.0343961 11.37835856-4.13758513 20.68792421-12.41275397 28.96309446s-18.6191313 12.41275467-29.99749057 13.44715007c-12.41275467 0-21.72232032-5.17198123-29.99748986-13.44715077s-12.41275467-18.6191313-12.41275396-28.96309305c0-12.41275467 4.13758513-22.75671642 12.41275396-31.03188668 9.30956565-7.24077344 17.58473519-11.37835856 29.99749057-11.37835786z" p-id="9452"></path></svg>
