<?xml version="1.0" standalone="no"?><!DOCTYPE svg PUBLIC "-//W3C//DTD SVG 1.1//EN" "http://www.w3.org/Graphics/SVG/1.1/DTD/svg11.dtd"><svg t="1744767641483" class="icon" viewBox="0 0 1706 1024" version="1.1" xmlns="http://www.w3.org/2000/svg" p-id="4256" id="mx_n_1744767641483" width="53.3125" height="32" xmlns:xlink="http://www.w3.org/1999/xlink"><path d="M867.287654 625.878542h-30.103702V340.314825h30.103702v285.563717z m-119.812734-49.671109v-307.05776h-30.103702v306.997553c-0.120415 33.776354-27.635198 61.23093-61.411552 61.23093-33.776354 0-61.291137-27.454576-61.411552-61.23093h-30.103702c0.120415 50.453804 41.061449 91.334632 91.515254 91.334632 50.453804-0.060207 91.334632-40.880827 91.515254-91.274425z m301.639093 91.214217c50.453804 0 91.394839-40.880827 91.515254-91.334631h-30.103702c-0.120415 33.776354-27.635198 61.23093-61.411552 61.230929s-61.291137-27.454576-61.411552-61.230929V299.253375h-30.103702v276.954058c0.180622 50.393597 41.061449 91.214217 91.515254 91.214217z m-469.136091 87.360943h559.928856v-30.103702h-559.928856v30.103702z m0 0" p-id="4257"></path></svg>