<?xml version="1.0" standalone="no"?><!DOCTYPE svg PUBLIC "-//W3C//DTD SVG 1.1//EN" "http://www.w3.org/Graphics/SVG/1.1/DTD/svg11.dtd"><svg t="1751878175851" class="icon" viewBox="0 0 1024 1024" version="1.1" xmlns="http://www.w3.org/2000/svg" p-id="6425" width="32" height="32" xmlns:xlink="http://www.w3.org/1999/xlink"><path d="M1023.79324 877.446V1024H0.13424V877.446a106.716 106.716 0 0 1 100.66-111.835h279.459a136.488 136.488 0 0 0 178.202 94.604 148.345 148.345 0 0 0 85.305-94.604h279.458a106.716 106.716 0 0 1 100.575 111.835zM345.79024 461.84A134.526 134.526 0 0 1 220.47724 603.96 134.526 134.526 0 0 1 95.16424 461.84a36.766 36.766 0 0 1 34.122-38.985 35.913 35.913 0 0 1 34.122 34.122v5.119a61.078 61.078 0 0 0 57.069 64.49 60.225 60.225 0 0 0 56.557-57.837V39.07A36.681 36.681 0 0 1 311.15624 0.34a35.999 35.999 0 0 1 34.122 33.525v428.06z m341.731 0A134.526 134.526 0 0 0 812.32224 603.96 134.526 134.526 0 0 0 937.63524 461.84a36.596 36.596 0 0 0-34.549-38.302 35.999 35.999 0 0 0-33.44 33.183v5.119a61.164 61.164 0 0 1-56.556 64.917 59.713 59.713 0 0 1-56.984-58.263V39.07A36.681 36.681 0 0 0 721.98424 0.34a36.084 36.084 0 0 0-34.122 33.525v428.06zM512.47524 82.32a35.828 35.828 0 0 1 34.122 33.524v418.591a36.681 36.681 0 0 1-34.122 38.729 35.828 35.828 0 0 1-34.122-33.525V121.304a36.681 36.681 0 0 1 34.122-38.985z" p-id="6426" fill="#2c2c2c"></path></svg>