<?xml version="1.0" standalone="no"?>
<!DOCTYPE svg PUBLIC "-//W3C//DTD SVG 1.1//EN" "http://www.w3.org/Graphics/SVG/1.1/DTD/svg11.dtd"><svg t="1765281586759"
  class="icon" viewBox="0 0 1024 1024" version="1.1" xmlns="http://www.w3.org/2000/svg" p-id="7316" width="32"
  height="32" xmlns:xlink="http://www.w3.org/1999/xlink">
  <path
    d="M510.304 32C776.416 32 992 246.816 992 512c0 265.184-215.584 480-481.696 480C244.224 988.64 32 773.824 32 508.64S244.224 32 510.304 32z"
    fill="#434343" p-id="7317"></path>
  <path
    d="M510.4 64C758.816 64 960 264.512 960 512s-201.216 448-449.6 448C262.08 956.864 64 756.352 64 508.864 64 261.376 262.08 64 510.4 64z"
    fill="#FFFFFF" p-id="7318"></path>
  <path d="M512 96c231.104 0 416 184.896 416 416s-184.896 416-416 416S96 743.104 96 512 280.896 96 512 96z"
    fill="#ff4d4f" p-id="7319"></path>
  <path
    d="M502.24 268.32l169.6 142.4-40.192 20.672-127.168-104.928-154.432 129.696-0.128 254.08h83.136l32.352 44.064h-162.88v-258.208l12.416-10.464-32.8 27.552-36-35.04 256.096-209.824z m136.256 222.72l-21.344-22.016c53.408-41.6 93.152-56.16 119.264-43.68 18.24 8.736 29.792 30.624 34.72 65.696h-132.64z m-179.52 0c6.4-36.288 18.88-58.176 37.536-65.696 28.32-11.424 70.848 10.464 127.552 65.696h-165.056z m-76.416-11.264h40.448v65.216h-40.448v-65.216z m73.92 77.312l-6.72-57.888h328.064v222.208h-44.576a37.44 37.44 0 0 0-36.576-28.16c-17.408 0.032-32.544 11.68-36.608 28.16h-74.528a37.44 37.44 0 0 0-36.576-28.16 37.44 37.44 0 0 0-36.576 28.16h-28.704l-6.688-47.296h187.456V649.6h-187.456l-6.72-19.552h194.176v-26.912H469.44l-6.688-19.168h201.696v-26.88h-207.968z m118.848 172.896a26.048 26.048 0 0 1-26.368 25.664 26.048 26.048 0 0 1-26.368-25.664c0-14.208 11.808-25.696 26.368-25.696 14.56 0 26.368 11.52 26.368 25.696z m147.712 0a26.016 26.016 0 0 1-26.368 25.696 26.016 26.016 0 0 1-26.368-25.696c0-14.176 11.84-25.664 26.368-25.664 14.528 0 26.336 11.488 26.368 25.664z"
    fill="#FFFFFF" p-id="7320"></path>
</svg>
