<?xml version="1.0" standalone="no"?>
<!DOCTYPE svg PUBLIC "-//W3C//DTD SVG 1.1//EN" "http://www.w3.org/Graphics/SVG/1.1/DTD/svg11.dtd"><svg t="1720424682705"
  class="icon" viewBox="0 0 1024 1024" version="1.1" xmlns="http://www.w3.org/2000/svg" p-id="15872" width="32"
  height="32" xmlns:xlink="http://www.w3.org/1999/xlink">
  <path
    d="M512 944a391.792 391.792 0 0 1-247.6-695.592 56 56 0 0 1 85.792 71.2l2.304 2.304A280.056 280.056 0 1 0 696.584 341.6 55.832 55.832 0 1 1 748 245.432l3.592-3.592A391.928 391.928 0 0 1 512 944z m0-504a56 56 0 0 1-56-56V136a56 56 0 0 1 112 0v248a56 56 0 0 1-56 56z"
    p-id="15873"></path>
</svg>
