<?xml version="1.0" standalone="no"?><!DOCTYPE svg PUBLIC "-//W3C//DTD SVG 1.1//EN" "http://www.w3.org/Graphics/SVG/1.1/DTD/svg11.dtd"><svg t="1720424502562" class="icon" viewBox="0 0 1024 1024" version="1.1" xmlns="http://www.w3.org/2000/svg" p-id="13658" width="32" height="32" xmlns:xlink="http://www.w3.org/1999/xlink"><path d="M513 98.15c-228.83 0-415 186.17-415 415 0 119.6 50.93 227.49 132.15 303.29 0.41 0.45 0.71 0.97 1.15 1.4 0.71 0.71 1.52 1.22 2.27 1.86 73.8 67.33 171.89 108.44 279.42 108.44 228.83 0 415-186.17 415-415S741.83 98.15 513 98.15z m0 759.54c-76.45 0-147.15-25.07-204.36-67.36l124.45-124.46c13.76-13.75 13.76-36.06 0-49.81-13.74-13.76-36.07-13.76-49.81 0l-126.8 126.8c-54.69-61.01-88.03-141.53-88.03-229.71 0-189.98 154.56-344.55 344.55-344.55 94.64 0 180.48 38.37 242.81 100.36L611.75 413.02c-13.76 13.75-13.76 36.06 0 49.81 6.87 6.88 15.89 10.32 24.91 10.32s18.03-3.44 24.91-10.32l139.06-139.06c35.93 54.38 56.92 119.46 56.92 189.38 0 189.98-154.57 344.54-344.55 344.54z" fill="#080505" p-id="13659"></path><path d="M441.92 469.5l124.54-253.94-6.99 6.99-315 314.81 378.24 56.88-187.79 216.49L821.8 536.64z" fill="#080505" p-id="13660"></path></svg>