<svg width="32" height="32" viewBox="0 0 32 32" fill="none" xmlns="http://www.w3.org/2000/svg">
  <g clip-path="url(#clip0_51_96)">
    <path fill-rule="evenodd" clip-rule="evenodd"
      d="M16 32C24.8366 32 32 24.8366 32 16C32 7.16344 24.8366 0 16 0C7.16344 0 0 7.16344 0 16C0 24.8366 7.16344 32 16 32ZM16 31C24.2843 31 31 24.2843 31 16C31 7.71573 24.2843 1 16 1C7.71573 1 1 7.71573 1 16C1 24.2843 7.71573 31 16 31Z"
      fill="#2f54eb" />
    <path
      d="M13.7478 20.3603C13.5323 20.6393 13.2289 20.7788 12.8369 20.7788C12.4547 20.7788 12.1537 20.6367 11.9321 20.351C11.7099 20.0653 11.5994 19.5973 11.5994 18.9445C11.5994 18.287 11.7111 17.8151 11.9346 17.53C12.1574 17.245 12.4529 17.1022 12.8217 17.1022C13.2051 17.1022 13.5097 17.2423 13.735 17.5234C13.9591 17.8037 14.072 18.2483 14.072 18.8571C14.0708 19.5793 13.9627 20.0806 13.7478 20.3603Z"
      fill="#2f54eb" />
    <path fill-rule="evenodd" clip-rule="evenodd"
      d="M15.0227 25.5887C11.3516 25.5887 8.36515 22.6023 8.36515 18.9305C8.36515 15.26 11.3516 12.2736 15.0227 12.2736C18.6939 12.2736 21.6803 15.2607 21.6803 18.9305C21.6803 22.6023 18.6945 25.5887 15.0227 25.5887ZM12.8247 15.5909C11.865 15.5909 11.1165 15.8846 10.5792 16.472C10.0414 17.0601 9.77273 17.8805 9.77273 18.9358C9.77273 19.6908 9.90826 20.3202 10.1799 20.8222C10.451 21.3255 10.8051 21.6927 11.2422 21.925C11.6788 22.1559 12.2307 22.2727 12.8974 22.2727C13.5531 22.2727 14.1007 22.1386 14.5403 21.8695C14.9703 21.6099 15.3208 21.2175 15.5482 20.7414C15.7802 20.2575 15.8968 19.6387 15.8968 18.8831C15.8968 17.8424 15.6307 17.0334 15.0983 16.4567C14.5665 15.8786 13.8083 15.5909 12.8247 15.5909ZM17.9617 20.9396C17.9409 20.9587 17.9228 20.9752 17.9079 20.9884C17.8801 21.013 17.8506 21.0635 17.8193 21.1169C17.7673 21.2057 17.7104 21.3028 17.649 21.3028H19.063V22.0551H16.0855C16.0995 22.0551 16.1243 21.9661 16.1598 21.8386C16.2188 21.6268 16.3075 21.3086 16.4255 21.1146C16.6154 20.8062 16.9701 20.4938 17.4915 20.0706C17.8096 19.8123 18.0129 19.6167 18.1026 19.4825C18.1912 19.349 18.2357 19.2209 18.2357 19.1007C18.2364 19.038 18.2251 18.9758 18.2023 18.9181C18.1796 18.8605 18.1461 18.8088 18.1039 18.7663C18.0153 18.6742 17.9048 18.6281 17.7711 18.6281C17.7086 18.6256 17.6462 18.637 17.5877 18.6615C17.5293 18.6861 17.476 18.7233 17.4311 18.7709C17.3432 18.8664 17.2839 19.0353 17.254 19.2763L16.1655 19.1795C16.2082 18.8444 16.2863 18.5834 16.3999 18.3965C16.5179 18.2039 16.6853 18.0537 16.881 17.9646C17.0886 17.8645 17.3749 17.8151 17.7418 17.8151C18.124 17.8151 18.4213 17.8638 18.6344 17.9593C18.8384 18.0473 19.0132 18.2009 19.1356 18.3998C19.2571 18.5967 19.3182 18.821 19.3182 19.0667C19.3182 19.3263 19.248 19.582 19.1088 19.8196C18.969 20.0566 18.715 20.3303 18.3468 20.614C18.1728 20.7463 18.0441 20.8642 17.9617 20.9396Z"
      fill="#2f54eb" />
    <path fill-rule="evenodd" clip-rule="evenodd"
      d="M16 30C23.732 30 30 23.732 30 16C30 8.26801 23.732 2 16 2C8.26801 2 2 8.26801 2 16C2 23.732 8.26801 30 16 30ZM23.5557 8.62951C23.2872 8.4505 23.1364 8.20771 23.1364 7.95455C23.1364 7.70138 23.2872 7.45859 23.5557 7.27958C23.8243 7.10057 24.1884 7 24.5682 7C24.9479 7 25.3121 7.10057 25.5806 7.27958C25.8491 7.45859 26 7.70138 26 7.95455C26 8.20771 25.8491 8.4505 25.5806 8.62951C25.3121 8.80852 24.9479 8.90909 24.5682 8.90909C24.1884 8.90909 23.8243 8.80852 23.5557 8.62951ZM5.18165 12.2087C5.06173 11.9191 5 11.6088 5 11.2955C5 10.6626 5.25142 10.0556 5.69895 9.60804C6.14648 9.16051 6.75346 8.90909 7.38636 8.90909C8.01927 8.90909 8.62625 9.16051 9.07378 9.60804C9.52131 10.0556 9.77273 10.6626 9.77273 11.2955C9.77273 11.6088 9.711 11.9191 9.59108 12.2087C9.47115 12.4982 9.29537 12.7613 9.07378 12.9829C8.85218 13.2045 8.58911 13.3802 8.29959 13.5002C8.01006 13.6201 7.69975 13.6818 7.38636 13.6818C7.07298 13.6818 6.76267 13.6201 6.47314 13.5002C6.18361 13.3802 5.92054 13.2045 5.69895 12.9829C5.47736 12.7613 5.30158 12.4982 5.18165 12.2087ZM15.0227 10.8182C10.5486 10.8182 6.90909 14.457 6.90909 18.9312C6.90909 23.4053 10.5486 27.0455 15.0227 27.0455C19.4962 27.0455 23.1364 23.4047 23.1364 18.9312C23.1364 14.4577 19.4962 10.8182 15.0227 10.8182ZM21.2273 10.8182C21.2273 11.3245 21.3781 11.8101 21.6466 12.1681C21.9152 12.5261 22.2793 12.7273 22.6591 12.7273C23.0388 12.7273 23.403 12.5261 23.6715 12.1681C23.9401 11.8101 24.0909 11.3245 24.0909 10.8182C24.0909 10.3119 23.9401 9.82627 23.6715 9.46825C23.403 9.11023 23.0388 8.90909 22.6591 8.90909C22.2793 8.90909 21.9152 9.11023 21.6466 9.46825C21.3781 9.82627 21.2273 10.3119 21.2273 10.8182ZM10.0523 8.62951C9.8733 8.4505 9.77273 8.20771 9.77273 7.95455C9.77273 7.70138 9.8733 7.45859 10.0523 7.27958C10.2313 7.10057 10.4741 7 10.7273 7C10.9804 7 11.2232 7.10057 11.4022 7.27958C11.5813 7.45859 11.6818 7.70138 11.6818 7.95455C11.6818 8.20771 11.5813 8.4505 11.4022 8.62951C11.2232 8.80852 10.9804 8.90909 10.7273 8.90909C10.4741 8.90909 10.2313 8.80852 10.0523 8.62951Z"
      fill="#2f54eb" />
  </g>
  <defs>
    <clipPath id="clip0_51_96">
      <rect width="32" height="32" fill="white" />
    </clipPath>
  </defs>
</svg>
