<svg width="32" height="32" viewBox="0 0 32 32" fill="none" xmlns="http://www.w3.org/2000/svg">
  <g clip-path="url(#clip0_51_65)">
    <path fill-rule="evenodd" clip-rule="evenodd"
      d="M16 32C24.8366 32 32 24.8366 32 16C32 7.16344 24.8366 0 16 0C7.16344 0 0 7.16344 0 16C0 24.8366 7.16344 32 16 32ZM16 31C24.2843 31 31 24.2843 31 16C31 7.71573 24.2843 1 16 1C7.71573 1 1 7.71573 1 16C1 24.2843 7.71573 31 16 31Z"
      fill="#595959" />
    <path fill-rule="evenodd" clip-rule="evenodd"
      d="M16 30C23.732 30 30 23.732 30 16C30 8.26801 23.732 2 16 2C8.26801 2 2 8.26801 2 16C2 23.732 8.26801 30 16 30ZM6.79078 16.3021H26.8924C26.9642 15.9713 27.0003 15.6336 27 15.2949C27 12.568 24.7238 10.3512 21.9085 10.3512C21.7532 10.3512 21.6036 10.3712 21.4538 10.3911C21.4023 10.398 21.3507 10.4049 21.2988 10.4109C21.2599 10.4153 21.2204 10.4181 21.1811 10.421C21.1186 10.4255 21.0563 10.43 20.996 10.4406C20.8131 10.4772 20.6324 10.5239 20.4546 10.5806C20.4182 10.5912 20.3814 10.5995 20.3445 10.6078C20.2945 10.619 20.2444 10.6302 20.1957 10.6473C19.1066 7.83775 16.3622 5.98806 13.3316 6.00006C9.28125 6.00006 6 9.17734 6 13.1014C6.00075 14.2181 6.27236 15.3174 6.79078 16.3021ZM8.77815 24.3955C8.68327 24.2328 8.54707 24.0991 8.38383 24.0082C8.22117 23.915 8.03756 23.8659 7.85079 23.8659C7.66401 23.8659 7.4804 23.915 7.31775 24.0082C7.1545 24.0991 7.0183 24.2328 6.92343 24.3955C6.82855 24.5582 6.77849 24.7438 6.77849 24.9329C6.77849 25.122 6.82855 25.3076 6.92343 25.4703C7.0183 25.633 7.1545 25.7668 7.31775 25.8576C7.4804 25.9509 7.66401 25.9999 7.85079 25.9999C8.03756 25.9999 8.22117 25.9509 8.38383 25.8576C8.54707 25.7668 8.68327 25.633 8.77815 25.4703C8.87303 25.3076 8.92309 25.122 8.92309 24.9329C8.92309 24.7438 8.87303 24.5582 8.77815 24.3955ZM11.2352 21.7078C11.2352 21.115 10.7558 20.6409 10.1688 20.6409C9.9343 20.6334 9.70411 20.7063 9.51528 20.8478C9.32644 20.9894 9.18994 21.1913 9.12772 21.4212C9.0655 21.651 9.08117 21.8955 9.17222 22.1152C9.26327 22.335 9.42441 22.5172 9.62972 22.6326C9.79243 22.7259 9.9761 22.7749 10.1629 22.7749C10.3497 22.7749 10.5334 22.7259 10.6961 22.6326C10.8589 22.5412 10.9947 22.4073 11.0895 22.2447C11.1843 22.0821 11.2346 21.8968 11.2352 21.7078ZM14.146 24.9331C14.146 24.3406 13.667 23.8662 13.0678 23.8662C12.9288 23.8651 12.791 23.8918 12.6622 23.9448C12.5334 23.9978 12.4162 24.0761 12.3172 24.1751C12.2182 24.2742 12.1393 24.3922 12.0852 24.5222C12.0311 24.6523 12.0027 24.7919 12.0017 24.9331C12.0017 25.5259 12.4811 26 13.08 26C13.2189 26.0012 13.3568 25.9746 13.4856 25.9216C13.6145 25.8686 13.7318 25.7903 13.8308 25.6912C13.9298 25.5921 14.0086 25.4741 14.0627 25.3441C14.1168 25.214 14.1451 25.0743 14.146 24.9331ZM16.4462 21.7085C16.4462 21.1157 15.9668 20.6416 15.3798 20.6416C15.2419 20.6408 15.1052 20.6676 14.9775 20.7205C14.8498 20.7734 14.7336 20.8513 14.6356 20.9498C14.5375 21.0483 14.4595 21.1655 14.4061 21.2946C14.3526 21.4238 14.3246 21.5623 14.3239 21.7025C14.3231 21.8426 14.3495 21.9814 14.4015 22.1112C14.4536 22.2409 14.5303 22.359 14.6272 22.4586C14.7242 22.5582 14.8395 22.6375 14.9666 22.6918C15.0937 22.7462 15.2301 22.7745 15.368 22.7753C15.954 22.7753 16.4462 22.3012 16.4462 21.7085ZM19.3455 24.9331C19.3455 24.3406 18.8661 23.8662 18.2673 23.8662C18.1294 23.8662 17.9928 23.8938 17.8654 23.9474C17.738 24.001 17.6222 24.0796 17.5247 24.1786C17.4272 24.2777 17.3498 24.3953 17.2971 24.5248C17.2443 24.6542 17.2171 24.793 17.2171 24.9331C17.2171 25.0732 17.2443 25.2119 17.2971 25.3414C17.3498 25.4708 17.4272 25.5885 17.5247 25.6875C17.6222 25.7866 17.738 25.8652 17.8654 25.9188C17.9928 25.9724 18.1294 26 18.2673 26C18.8533 26 19.3455 25.5255 19.3455 24.9331ZM21.6457 21.7085C21.6457 21.1157 21.1663 20.6416 20.5792 20.6416C20.3449 20.6344 20.1146 20.7068 19.926 20.8483C19.7374 20.9899 19.601 21.1917 19.5388 21.4215C19.4767 21.6512 19.4922 21.8955 19.5831 22.1151C19.6739 22.3348 19.8348 22.517 20.0398 22.6326C20.2025 22.7259 20.3862 22.7749 20.573 22.7749C20.7598 22.7749 20.9435 22.7259 21.1062 22.6326C21.269 22.5413 21.4048 22.4075 21.4996 22.2451C21.5944 22.0826 21.6449 21.8973 21.6457 21.7085ZM24.217 20.0066C24.165 20.0275 24.1094 20.0378 24.0534 20.0368C23.8337 20.0368 23.6226 20.1255 23.4673 20.2834C23.3119 20.4412 23.2246 20.6554 23.2246 20.8786C23.2246 21.1019 23.3119 21.316 23.4673 21.4739C23.6226 21.6318 23.8334 21.7205 24.0531 21.7205C25.215 21.7205 26.1613 20.7719 26.1613 19.622C26.1735 18.4485 25.2271 17.5 24.0649 17.5H8.85108C8.74091 17.4977 8.63141 17.5179 8.52899 17.5592C8.42657 17.6005 8.33329 17.6621 8.2546 17.7405C8.17591 17.8188 8.1134 17.9124 8.07073 18.0156C8.02806 18.1188 8.00608 18.2297 8.00608 18.3416C8.00608 18.4536 8.02806 18.5644 8.07073 18.6677C8.1134 18.7709 8.17591 18.8644 8.2546 18.9428C8.33329 19.0212 8.42657 19.0828 8.52899 19.1241C8.63141 19.1654 8.74091 19.1855 8.85108 19.1833H24.0534C24.2812 19.1833 24.4846 19.385 24.4846 19.61C24.4841 19.6669 24.4726 19.7231 24.4506 19.7754C24.4286 19.8277 24.3967 19.8751 24.3566 19.9148C24.3165 19.9544 24.2691 19.9857 24.217 20.0066Z"
      fill="#595959" />
  </g>
  <defs>
    <clipPath id="clip0_51_65">
      <rect width="32" height="32" fill="white" />
    </clipPath>
  </defs>
</svg>
