<svg width="32" height="32" viewBox="0 0 32 32" fill="none" xmlns="http://www.w3.org/2000/svg">
  <g clip-path="url(#clip0_50_20)">
    <path fill-rule="evenodd" clip-rule="evenodd"
      d="M16 32C24.8366 32 32 24.8366 32 16C32 7.16344 24.8366 0 16 0C7.16344 0 0 7.16344 0 16C0 24.8366 7.16344 32 16 32ZM16 31C24.2843 31 31 24.2843 31 16C31 7.71573 24.2843 1 16 1C7.71573 1 1 7.71573 1 16C1 24.2843 7.71573 31 16 31Z"
      fill="#7cb305" />
    <path fill-rule="evenodd" clip-rule="evenodd"
      d="M13.8964 22.3938C13.8964 24.8375 15.9098 26.9937 18.4984 26.9937C21.0871 26.9937 23.2443 24.9813 23.3881 22.5375C23.3881 20.8125 22.3814 19.2313 20.7994 18.3687L20.5118 18.225V7.875C20.5118 6.86875 19.6489 6.00625 18.6422 6.00625C17.6355 6.00625 16.7727 6.86875 16.7727 7.875V18.0813L16.485 18.225C14.9031 19.0875 13.8964 20.6688 13.8964 22.3938ZM19.3613 10.8938V19.95C20.368 20.2375 20.9433 21.2437 20.9433 22.25C20.9433 23.5438 19.7927 24.6938 18.4984 24.6938C17.2041 24.6938 16.0536 23.5438 16.0536 22.25C16.0536 21.2437 16.6288 20.2375 17.6355 19.95V10.8938C17.6355 10.4625 18.067 10.0312 18.4984 10.0312C18.9299 10.0312 19.3613 10.4625 19.3613 10.8938Z"
      fill="#7cb305" />
    <path fill-rule="evenodd" clip-rule="evenodd"
      d="M16 30C23.732 30 30 23.732 30 16C30 8.26801 23.732 2 16 2C8.26801 2 2 8.26801 2 16C2 23.732 8.26801 30 16 30ZM21.2309 17.5063C22.0938 17.9375 22.8128 18.6562 23.2443 19.375C23.8195 20.3813 24.1072 21.3875 23.9634 22.5375C23.9634 23.975 23.3881 25.4125 22.3814 26.4188C21.3747 27.425 19.9366 28 18.4984 28C17.0603 28 15.4783 27.2812 14.4716 26.275C13.4649 25.2688 12.8897 23.8313 12.8897 22.3938C12.8897 21.2437 13.1773 20.2375 13.7526 19.375C14.3278 18.6562 14.9031 17.9375 15.766 17.65V7.875C15.766 6.29375 16.9165 5 18.4984 5C20.0804 5 21.2309 6.29375 21.2309 7.875V17.5063ZM13.3211 9.16875H8.86288C8.28763 9.16875 8 8.88125 8 8.30625C8 7.875 8.28763 7.44375 8.86288 7.44375H13.4649C13.8964 7.44375 14.3278 7.875 14.3278 8.30625C14.184 8.88125 13.8964 9.16875 13.3211 9.16875ZM10.4448 11.9H13.3211C13.8964 11.9 14.184 11.6125 14.184 11.0375C14.184 10.6062 13.7526 10.175 13.3211 10.175H10.4448C10.0134 10.175 9.58195 10.6062 9.58195 11.0375C9.58195 11.4688 10.0134 11.9 10.4448 11.9ZM13.3211 14.775H12.4582C12.0268 14.775 11.5954 14.3438 11.5954 13.9125C11.5954 13.4812 12.0268 13.05 12.4582 13.05H13.4649C13.8964 13.05 14.3278 13.4812 14.3278 13.9125C14.184 14.3438 13.8964 14.775 13.3211 14.775Z"
      fill="#7cb305" />
  </g>
  <defs>
    <clipPath id="clip0_50_20">
      <rect width="32" height="32" fill="white" />
    </clipPath>
  </defs>
</svg>
