<?xml version="1.0" standalone="no"?>
<!DOCTYPE svg PUBLIC "-//W3C//DTD SVG 1.1//EN" "http://www.w3.org/Graphics/SVG/1.1/DTD/svg11.dtd"><svg t="1720424305148"
  class="icon" viewBox="0 0 1024 1024" version="1.1" xmlns="http://www.w3.org/2000/svg" p-id="8675" width="32"
  height="32" xmlns:xlink="http://www.w3.org/1999/xlink">
  <path
    d="M512 0c282.76736 0 512 229.23264 512 512S794.76736 1024 512 1024 0 794.76736 0 512 229.23264 0 512 0zM173.28128 230.6048c-8.704 6.59456-11.6736 18.06336-7.70048 28.07808l45.99808 113.0496-45.99808 113.09056a24.43264 24.43264 0 0 0 7.70048 28.32384c4.48512 3.42016 9.95328 5.12 15.42144 5.12 4.97664 0 10.19904-1.45408 14.41792-4.62848l167.6288-117.47328h116.38784v219.79136h-49.74592V860.16h49.74592v-195.3792h49.72544V860.16h49.74592V615.95648h-49.74592V396.16512h174.08v36.63872c0 8.8064 4.97664 17.1008 12.94336 21.23776 3.72736 1.96608 7.94624 3.1744 11.93984 3.1744 4.46464 0 9.19552-1.2288 13.16864-3.66592l99.47136-61.0304c7.20896-4.4032 11.69408-12.47232 11.69408-20.76672s-4.48512-16.36352-11.6736-20.76672l-99.49184-61.0304a25.6 25.6 0 0 0-25.10848-0.73728 24.7808 24.7808 0 0 0-12.94336 21.48352v36.63872H370.74944l-167.6288-117.47328a24.9856 24.9856 0 0 0-29.83936 0.73728z"
    fill="#1afa29" p-id="8676"></path>
</svg>
