<?xml version="1.0" standalone="no"?><!DOCTYPE svg PUBLIC "-//W3C//DTD SVG 1.1//EN" "http://www.w3.org/Graphics/SVG/1.1/DTD/svg11.dtd"><svg t="1720424430244" class="icon" viewBox="0 0 1024 1024" version="1.1" xmlns="http://www.w3.org/2000/svg" p-id="12500" width="32" height="32" xmlns:xlink="http://www.w3.org/1999/xlink"><path d="M511.998796 0C229.228786 0 0 229.22999 0 511.998796c0 282.77001 229.228786 512 511.998796 512 282.771214 0 512-229.22999 512-512C1024 229.22999 794.77001 0 511.998796 0zM323.017444 380.302363h110.07596a57.253612 57.253612 0 0 0 52.901822-35.347756 57.243979 57.243979 0 0 0-12.409947-62.395323c-16.377613-16.375205-41.004842-21.27729-62.400139-12.413559a57.247591 57.247591 0 0 0-35.346552 52.895802h-0.057799c0 10.527864-8.533795 19.056842-19.056842 19.056842-10.526659 0-19.062863-8.528978-19.062863-19.056842v-0.845312c0.466005-52.116718 42.637667-94.23058 94.751976-94.615908s94.902495 41.093949 96.13795 93.191401c1.234251 52.104676-39.541803 95.562368-91.613967 97.646747h-0.028899v0.056595h-113.8907c-10.543517 0-19.090558-8.547041-19.090558-19.082129-0.001204-10.543517 8.547041-19.090558 19.090558-19.090558z m-76.377886 0c10.544722 0 19.089354 8.547041 19.089354 19.089354 0 10.535088-8.544632 19.082129-19.089354 19.082129-10.541109 0-19.083333-8.547041-19.083333-19.082129 0.001204-10.542313 8.542224-19.089354 19.083333-19.089354z m0 237.996186c-10.541109 0-19.083333-8.549449-19.083333-19.090558 0-10.536293 8.542224-19.083333 19.083333-19.083333 10.544722 0 19.089354 8.547041 19.089354 19.083333 0 10.541109-8.544632 19.090558-19.089354 19.090558z m0-99.898504c-10.54713 0-19.097783-8.550653-19.097783-19.096579 0-10.553151 8.551857-19.105008 19.097783-19.105007 10.555559 0 19.107416 8.553061 19.107416 19.105007 0 10.545926-8.551857 19.096579-19.107416 19.096579z m444.099314 173.432193c-1.926636 58.857537-50.577817 105.350884-109.457029 104.619967-58.875599-0.728509-106.35996-48.421188-106.828373-107.301604v-0.851333h0.030103c0-10.523047 8.533795-19.052025 19.058047-19.052025 10.519435 0 19.050821 8.528978 19.056841 19.052025h0.027696c0.013246 38.638692 31.340353 69.953758 69.981453 69.947738 38.63508-0.004817 69.958574-31.328311 69.964595-69.9658 0.004817-38.639896-31.307841-69.968208-69.948941-69.981453H323.017444c-10.543517 0-19.090558-8.549449-19.090558-19.090558 0-10.536293 8.548245-19.083333 19.090558-19.083333h265.35683v0.140885c58.797329 3.128376 104.297255 52.716383 102.364598 111.565491z m105.6459-295.483402c-2.828543 67.948852-58.568541 121.673107-126.5776 121.994614H323.017444c-10.543517 0-19.090558-8.545836-19.090558-19.089354 0-10.541109 8.548245-19.082129 19.090558-19.082129H669.181015c47.631267 0 86.838317-37.464648 88.999762-85.046545 2.161445-47.58551-33.489757-88.448263-80.921135-92.765133-47.438604-4.314461-89.875178 29.441412-96.339043 76.633166h-0.228788c0 10.521843-8.531387 19.052025-19.056842 19.052025s-19.056842-8.530182-19.056842-19.052025h-0.083086l0.051778-0.567154v-0.057799c0-1.450998 0.172193-2.933304 0.51658-4.352994 9.104561-67.396148 69.578064-115.72823 137.317394-109.755657 67.744147 5.970164 118.827706 64.142541 116.003979 132.088985z" fill="#070001" p-id="12501"></path></svg>